<svg xmlns="http://www.w3.org/2000/svg" x="0px" y="0px" width="50" height="50" viewBox="0 0 100 100">
<path d="M82.493,94.114c-3.904,0-8.718-1.495-14.336-4.448 c-0.569,0.238-1.162,0.47-1.782,0.699c-0.172,0.083-0.351,0.157-0.536,0.221c-0.15,0.052-0.307,0.099-0.468,0.139 c-4.277,1.467-8.754,2.21-13.312,2.21c-10.87,0-21.458-4.354-29.05-11.945c-11.037-11.037-14.822-27.689-9.686-42.5 c0.038-0.148,0.088-0.318,0.156-0.503c0.055-0.151,0.118-0.3,0.187-0.444c0.22-0.592,0.442-1.157,0.669-1.7 c-5.477-10.426-5.892-18.067-1.226-22.734c1.471-1.471,4.122-3.223,8.398-3.223c3.9,0,8.709,1.492,14.321,4.439 c5.043-2.152,10.549-3.281,16.08-3.281c10.879,0,21.479,4.361,29.083,11.964c11.766,11.765,15.16,29.982,8.683,45.164 c5.469,10.418,5.881,18.054,1.217,22.718C89.42,92.361,86.77,94.114,82.493,94.114z" opacity=".35"></path><path fill="#f2f2f2" d="M80.493,92.114c-3.904,0-8.718-1.495-14.336-4.448c-0.569,0.238-1.162,0.47-1.782,0.699 c-0.172,0.083-0.351,0.157-0.536,0.221c-0.15,0.052-0.307,0.099-0.468,0.139c-4.277,1.467-8.754,2.21-13.312,2.21 c-10.87,0-21.458-4.354-29.05-11.945c-11.037-11.037-14.822-27.689-9.686-42.5c0.038-0.148,0.088-0.318,0.156-0.503 c0.055-0.151,0.118-0.3,0.187-0.444c0.22-0.592,0.442-1.157,0.669-1.7c-5.477-10.426-5.892-18.067-1.226-22.734 c1.471-1.471,4.122-3.223,8.398-3.223c3.9,0,8.709,1.492,14.321,4.439c5.043-2.152,10.549-3.281,16.08-3.281 c10.879,0,21.479,4.361,29.083,11.964c11.766,11.765,15.16,29.982,8.683,45.164c5.469,10.418,5.881,18.054,1.217,22.718 C87.42,90.361,84.77,92.114,80.493,92.114z"></path><circle cx="50" cy="50" r="34.5" fill="#ff7575"></circle><path fill="#b73b3b" d="M41.515,58.485C21.929,38.9,12.753,20.779,16.766,16.766c2.112-2.112,8.129-0.572,16.209,4.214 c0.299,0.177,1.141-0.211,1.446-0.025c7.108,4.34,15.165,11.661,24.064,20.56c8.906,8.906,15.66,17.509,19.999,24.62 c0.092,0.151,1.19-0.304,1.28-0.155c0.116,0.193-0.777,0.989-0.665,1.18c4.723,8.013,6.234,13.975,4.135,16.074 C79.221,87.247,61.1,78.071,41.515,58.485z"></path><ellipse cx="56.297" cy="43.704" fill="#ff7575" rx="9.388" ry="31.949" transform="rotate(-45.001 56.297 43.705)"></ellipse><path fill="#b73b3b" d="M81.146,63.721c-1.922,0-5.199-1.189-11.21-5.211c-5.397-3.611-11.557-8.617-15.692-12.752 c-5.125-5.125-21.804-24.682-17.233-29.253l2.121,2.121c-0.841,2.218,8.052,15.83,17.233,25.011 c8.911,8.911,22.704,17.894,24.972,17.042c-0.011,0.004-0.048,0.023-0.087,0.063l2.121,2.121 C82.899,63.333,82.244,63.721,81.146,63.721z"></path><path fill="#b73b3b" d="M59.771,84.235c-6.541,0-17.492-6.449-27.524-16.482C20.563,56.07,14.4,42.539,16.176,37.701 l2.816,1.034c-1.05,2.86,3.425,14.947,15.375,26.897c12.523,12.523,23.422,16.591,26.844,15.399l0.987,2.833 C61.482,84.114,60.667,84.235,59.771,84.235z"></path><path fill="#b73b3b" d="M83.82,52.882c-4.109-1.874-12.313-6.327-21.092-15.106c-8.193-8.193-13.555-16.651-15.84-21.835 l2.745-1.21c2.176,4.936,7.316,13.024,15.216,20.924c8.445,8.445,16.29,12.708,20.215,14.498L83.82,52.882z"></path><path fill="none" stroke="#40396e" stroke-linecap="round" stroke-linejoin="round" stroke-miterlimit="10" stroke-width="3" d="M84.295,84.295c2.757-2.757,1.035-9.444-3.937-17.901c7.066-13.073,5.083-29.743-5.963-40.789s-27.716-13.029-40.789-5.963 c-8.457-4.972-15.144-6.694-17.901-3.937s-1.035,9.444,3.937,17.901c-7.066,13.073-5.083,29.743,5.963,40.789 s27.716,13.029,40.789,5.963C74.851,85.33,81.538,87.052,84.295,84.295z"></path>
</svg>